<mxfile host="Electron" modified="2024-02-02T22:48:30.100Z" agent="Mozilla/5.0 (Windows NT 10.0; Win64; x64) AppleWebKit/537.36 (KHTML, like Gecko) draw.io/23.0.2 Chrome/120.0.6099.109 Electron/28.1.0 Safari/537.36" etag="fMRGYNTGONYGxPJmMeor" version="23.0.2" type="device">
  <diagram name="Page-1" id="2wWzTN-BeP0YJ2wlxR15">
    <mxGraphModel dx="1985" dy="922" grid="1" gridSize="10" guides="1" tooltips="1" connect="1" arrows="1" fold="1" page="1" pageScale="1" pageWidth="850" pageHeight="1100" math="0" shadow="0">
      <root>
        <mxCell id="0" />
        <mxCell id="1" parent="0" />
        <mxCell id="thpBK5Ogu7jyTQVFdLfv-5" style="edgeStyle=orthogonalEdgeStyle;rounded=0;orthogonalLoop=1;jettySize=auto;html=1;entryX=0.5;entryY=0;entryDx=0;entryDy=0;" edge="1" parent="1" source="thpBK5Ogu7jyTQVFdLfv-1" target="thpBK5Ogu7jyTQVFdLfv-6">
          <mxGeometry relative="1" as="geometry">
            <mxPoint x="205" y="410" as="targetPoint" />
          </mxGeometry>
        </mxCell>
        <mxCell id="thpBK5Ogu7jyTQVFdLfv-25" value="CharacterBody3D Node Path" style="edgeLabel;html=1;align=center;verticalAlign=middle;resizable=0;points=[];" vertex="1" connectable="0" parent="thpBK5Ogu7jyTQVFdLfv-5">
          <mxGeometry x="0.3077" y="3" relative="1" as="geometry">
            <mxPoint as="offset" />
          </mxGeometry>
        </mxCell>
        <mxCell id="thpBK5Ogu7jyTQVFdLfv-22" value="" style="edgeStyle=orthogonalEdgeStyle;rounded=0;orthogonalLoop=1;jettySize=auto;html=1;entryX=0;entryY=0.5;entryDx=0;entryDy=0;" edge="1" parent="1" source="thpBK5Ogu7jyTQVFdLfv-1" target="thpBK5Ogu7jyTQVFdLfv-23">
          <mxGeometry relative="1" as="geometry">
            <mxPoint x="310" y="240" as="targetPoint" />
          </mxGeometry>
        </mxCell>
        <mxCell id="thpBK5Ogu7jyTQVFdLfv-1" value="CharacterBody3D" style="shape=umlActor;verticalLabelPosition=bottom;verticalAlign=top;html=1;outlineConnect=0;" vertex="1" parent="1">
          <mxGeometry x="190" y="210" width="30" height="60" as="geometry" />
        </mxCell>
        <mxCell id="thpBK5Ogu7jyTQVFdLfv-4" value="" style="edgeStyle=orthogonalEdgeStyle;rounded=0;orthogonalLoop=1;jettySize=auto;html=1;" edge="1" parent="1" source="thpBK5Ogu7jyTQVFdLfv-2" target="thpBK5Ogu7jyTQVFdLfv-3">
          <mxGeometry relative="1" as="geometry">
            <Array as="points">
              <mxPoint x="360" y="580" />
              <mxPoint x="360" y="650" />
            </Array>
          </mxGeometry>
        </mxCell>
        <mxCell id="thpBK5Ogu7jyTQVFdLfv-10" style="edgeStyle=orthogonalEdgeStyle;rounded=0;orthogonalLoop=1;jettySize=auto;html=1;entryX=0;entryY=0.5;entryDx=0;entryDy=0;" edge="1" parent="1" source="thpBK5Ogu7jyTQVFdLfv-2" target="thpBK5Ogu7jyTQVFdLfv-9">
          <mxGeometry relative="1" as="geometry" />
        </mxCell>
        <mxCell id="thpBK5Ogu7jyTQVFdLfv-2" value="AIBlueAgent&lt;br&gt;&amp;lt;GDExtension:Node3D&amp;gt;" style="rounded=1;whiteSpace=wrap;html=1;" vertex="1" parent="1">
          <mxGeometry x="100" y="550" width="210" height="60" as="geometry" />
        </mxCell>
        <mxCell id="thpBK5Ogu7jyTQVFdLfv-3" value="Planner Ticks" style="shape=process;whiteSpace=wrap;html=1;backgroundOutline=1;rounded=1;" vertex="1" parent="1">
          <mxGeometry x="300" y="730" width="120" height="60" as="geometry" />
        </mxCell>
        <mxCell id="thpBK5Ogu7jyTQVFdLfv-7" style="edgeStyle=orthogonalEdgeStyle;rounded=0;orthogonalLoop=1;jettySize=auto;html=1;entryX=0.5;entryY=0;entryDx=0;entryDy=0;" edge="1" parent="1" source="thpBK5Ogu7jyTQVFdLfv-6" target="thpBK5Ogu7jyTQVFdLfv-2">
          <mxGeometry relative="1" as="geometry" />
        </mxCell>
        <mxCell id="thpBK5Ogu7jyTQVFdLfv-11" style="edgeStyle=orthogonalEdgeStyle;rounded=0;orthogonalLoop=1;jettySize=auto;html=1;entryX=0;entryY=0.25;entryDx=0;entryDy=0;" edge="1" parent="1" source="thpBK5Ogu7jyTQVFdLfv-6" target="thpBK5Ogu7jyTQVFdLfv-9">
          <mxGeometry relative="1" as="geometry" />
        </mxCell>
        <mxCell id="thpBK5Ogu7jyTQVFdLfv-6" value="Agent_Setup" style="shape=process;whiteSpace=wrap;html=1;backgroundOutline=1;rounded=1;" vertex="1" parent="1">
          <mxGeometry x="145" y="440" width="120" height="60" as="geometry" />
        </mxCell>
        <mxCell id="thpBK5Ogu7jyTQVFdLfv-8" value="Passes the CharacterBody3D Node to the AIBlue Agent&#39;s Code." style="text;html=1;strokeColor=none;fillColor=none;align=center;verticalAlign=middle;whiteSpace=wrap;rounded=0;" vertex="1" parent="1">
          <mxGeometry x="20" y="380" width="100" height="80" as="geometry" />
        </mxCell>
        <mxCell id="thpBK5Ogu7jyTQVFdLfv-14" value="" style="edgeStyle=orthogonalEdgeStyle;rounded=0;orthogonalLoop=1;jettySize=auto;html=1;" edge="1" parent="1" source="thpBK5Ogu7jyTQVFdLfv-9" target="thpBK5Ogu7jyTQVFdLfv-13">
          <mxGeometry relative="1" as="geometry" />
        </mxCell>
        <mxCell id="thpBK5Ogu7jyTQVFdLfv-17" style="edgeStyle=orthogonalEdgeStyle;rounded=0;orthogonalLoop=1;jettySize=auto;html=1;entryX=-0.025;entryY=0.482;entryDx=0;entryDy=0;entryPerimeter=0;" edge="1" parent="1" source="thpBK5Ogu7jyTQVFdLfv-9" target="thpBK5Ogu7jyTQVFdLfv-15">
          <mxGeometry relative="1" as="geometry">
            <Array as="points">
              <mxPoint x="570" y="550" />
              <mxPoint x="570" y="759" />
            </Array>
          </mxGeometry>
        </mxCell>
        <mxCell id="thpBK5Ogu7jyTQVFdLfv-18" value="ChracterBody3D Node Path" style="edgeLabel;html=1;align=center;verticalAlign=middle;resizable=0;points=[];" vertex="1" connectable="0" parent="thpBK5Ogu7jyTQVFdLfv-17">
          <mxGeometry x="-0.2908" y="2" relative="1" as="geometry">
            <mxPoint as="offset" />
          </mxGeometry>
        </mxCell>
        <mxCell id="thpBK5Ogu7jyTQVFdLfv-9" value="Agent_Setup" style="shape=process;whiteSpace=wrap;html=1;backgroundOutline=1;rounded=1;" vertex="1" parent="1">
          <mxGeometry x="410" y="520" width="120" height="60" as="geometry" />
        </mxCell>
        <mxCell id="thpBK5Ogu7jyTQVFdLfv-12" value="Setup Planner, AgentContext, Domain Creation" style="text;html=1;strokeColor=none;fillColor=none;align=center;verticalAlign=middle;whiteSpace=wrap;rounded=0;" vertex="1" parent="1">
          <mxGeometry x="405" y="450" width="130" height="60" as="geometry" />
        </mxCell>
        <mxCell id="thpBK5Ogu7jyTQVFdLfv-16" value="" style="edgeStyle=orthogonalEdgeStyle;rounded=0;orthogonalLoop=1;jettySize=auto;html=1;" edge="1" parent="1" source="thpBK5Ogu7jyTQVFdLfv-13" target="thpBK5Ogu7jyTQVFdLfv-15">
          <mxGeometry relative="1" as="geometry" />
        </mxCell>
        <mxCell id="thpBK5Ogu7jyTQVFdLfv-27" value="Domain Add Operator&lt;br&gt;MoveTo" style="edgeLabel;html=1;align=center;verticalAlign=middle;resizable=0;points=[];" vertex="1" connectable="0" parent="thpBK5Ogu7jyTQVFdLfv-16">
          <mxGeometry x="-0.0064" y="-1" relative="1" as="geometry">
            <mxPoint as="offset" />
          </mxGeometry>
        </mxCell>
        <mxCell id="thpBK5Ogu7jyTQVFdLfv-13" value="CreateDomainAgentBuilder&lt;br&gt;&amp;lt;BaseDomainBuilder&amp;gt;" style="rounded=1;whiteSpace=wrap;html=1;" vertex="1" parent="1">
          <mxGeometry x="610" y="520" width="160" height="60" as="geometry" />
        </mxCell>
        <mxCell id="thpBK5Ogu7jyTQVFdLfv-24" style="edgeStyle=orthogonalEdgeStyle;rounded=0;orthogonalLoop=1;jettySize=auto;html=1;entryX=1;entryY=0.75;entryDx=0;entryDy=0;" edge="1" parent="1" source="thpBK5Ogu7jyTQVFdLfv-15" target="thpBK5Ogu7jyTQVFdLfv-23">
          <mxGeometry relative="1" as="geometry">
            <Array as="points">
              <mxPoint x="810" y="760" />
              <mxPoint x="810" y="255" />
            </Array>
          </mxGeometry>
        </mxCell>
        <mxCell id="thpBK5Ogu7jyTQVFdLfv-26" value="Operator&lt;br&gt;MoveTo&lt;br&gt;Executed" style="edgeLabel;html=1;align=center;verticalAlign=middle;resizable=0;points=[];" vertex="1" connectable="0" parent="thpBK5Ogu7jyTQVFdLfv-24">
          <mxGeometry x="-0.1286" y="3" relative="1" as="geometry">
            <mxPoint as="offset" />
          </mxGeometry>
        </mxCell>
        <mxCell id="thpBK5Ogu7jyTQVFdLfv-15" value="MoveTo" style="shape=process;whiteSpace=wrap;html=1;backgroundOutline=1;rounded=1;" vertex="1" parent="1">
          <mxGeometry x="630" y="730" width="120" height="60" as="geometry" />
        </mxCell>
        <mxCell id="thpBK5Ogu7jyTQVFdLfv-23" value="MoveTo&lt;br&gt;&amp;lt;CharacterBody3D Script&amp;gt;" style="shape=process;whiteSpace=wrap;html=1;backgroundOutline=1;rounded=1;" vertex="1" parent="1">
          <mxGeometry x="340" y="210" width="190" height="60" as="geometry" />
        </mxCell>
        <mxCell id="thpBK5Ogu7jyTQVFdLfv-28" value="&lt;h1&gt;AI Blue Agent : Fluid HTN CPP using GDExtension&lt;/h1&gt;&lt;p&gt;Our agent (CharacterBody3D) has sensors and operators. On setup, we pass our node path to the AIBlue Agent&#39;s &#39;agent_setup&#39; function. That node path is then used in the Domain to execute HTN Operators on the &#39;CharacterBody3D&#39;.&amp;nbsp;&lt;/p&gt;&lt;p&gt;All Domain&#39;s &amp;amp; Knowledge models are written in c++.&amp;nbsp;&lt;/p&gt;&lt;p&gt;All Sensors &amp;amp; Operators are written in GDScript.&lt;/p&gt;" style="text;html=1;strokeColor=none;fillColor=none;spacing=5;spacingTop=-20;whiteSpace=wrap;overflow=hidden;rounded=0;" vertex="1" parent="1">
          <mxGeometry x="30" y="30" width="730" height="150" as="geometry" />
        </mxCell>
      </root>
    </mxGraphModel>
  </diagram>
</mxfile>
